<svg version="1.1" xmlns="http://www.w3.org/2000/svg" xmlns:xlink="http://www.w3.org/1999/xlink" width="103.79047" height="103.79047" viewBox="0,0,103.79047,103.79047"><g transform="translate(-128.10477,-128.10477)"><g stroke="none" stroke-width="0" stroke-miterlimit="10"><path d="M182.13085,155.70215c-4.30186,0 -7.78922,-3.50794 -7.78922,-7.83522v-11.92693c0,-4.32728 3.48737,-7.83522 7.78922,-7.83522h41.97516c4.30186,0 7.78922,3.50794 7.78922,7.83522v11.92693c0,4.32728 -3.48737,7.83522 -7.78922,7.83522z" fill="#ffffff"/><path d="M182.13085,182.42892c-4.30186,0 -7.78922,-3.50794 -7.78922,-7.83522v-33.95261c0,-4.32728 44.74465,-4.32728 44.74465,0v33.95261c0,4.32728 -3.48737,7.83522 -7.78922,7.83522z" fill="#ffffff"/><path d="M223.84635,164.90597c4.30186,0 7.78922,3.50794 7.78922,7.83522v33.95257c0,4.32728 -42.29827,4.32728 -42.29827,0v-33.95257c0,-4.32728 11.56504,-7.83522 15.86689,-7.83522z" fill="#ffffff"/><path d="M135.89762,231.89523c-4.30186,0 -7.78922,-3.50794 -7.78922,-7.83522v-20.1452c0,-4.32728 3.48737,-7.83522 7.78922,-7.83522h87.94877c4.30186,0 7.78922,3.50794 7.78922,7.83522v20.1452c0,4.32728 -3.48737,7.83522 -7.78922,7.83522z" fill="#ffffff"/><path d="M158.55555,180.64605c4.30186,0 7.78922,3.50794 7.78922,7.83522v33.95257c0,4.32728 -38.23634,4.32728 -38.23634,0v-33.95257c0,-4.32728 3.48737,-7.83522 7.78922,-7.83522z" fill="#ffffff"/><path d="M132.43209,178.82565c-2.38992,0 -4.32732,-2.41004 -4.32732,-5.383c0,0 6.09168,-9.61763 8.48156,-9.61763h22.04057c2.38992,0 8.07431,9.61763 8.07431,9.61763c0,2.97296 -1.9374,5.383 -4.32732,5.383z" fill="#ffffff"/><path d="M137.08714,161.56466c-1.64681,0 -2.98178,-1.66067 -2.98178,-3.70924c0,0 4.19753,-6.62715 5.84434,-6.62715h15.18727c1.64681,0 5.56368,6.62715 5.56368,6.62715c0,2.04856 -1.335,3.70924 -2.98178,3.70924z" fill="#ffffff"/><path d="M140.2651,148.8792c-1.13947,0 -2.06318,-0.86019 -2.06318,-1.92129c0,0 7.9454,-18.88635 9.92906,-18.85307c1.89022,0.03176 8.47312,18.85307 8.47312,18.85307c0,1.0611 -0.92375,1.92129 -2.06318,1.92129z" fill="#ffffff"/><path d="M219.08631,135.95534c0,-2.0194 1.62742,-3.65644 3.63495,-3.65644c2.00753,0 3.63495,1.63704 3.63495,3.65644c0,2.0194 -1.62742,3.65644 -3.63495,3.65644c-2.00753,0 -3.63495,-1.63704 -3.63495,-3.65644z" fill="#000000"/></g></g></svg>